# xmcd
#
# Track frame offsets:
#	150
#	30162
#	53305
#	85484
#	116256
#	144509
#	171243
#	206450
#	241075
#	271059
#	282160
#	282603
#	302554
#
# Disc length: 4354 seconds
#
# Revision: 0
# Processed by: cddbd v1.4PL0 Copyright (c) Steve Scherf et al.
# Submitted via: audiograbber 1.80.04
#
DISCID=a711000d
DTITLE=The Kan-Tu Blues Band - Live At O'Donnell's
DYEAR=1998
DGENRE=Blues
TTITLE0=You Don't Have to Go
TTITLE1=Wait and See
TTITLE2=The Thrill is Gone
TTITLE3=Why Get Up
TTITLE4=Too Hot to Handle
TTITLE5=Tigerman
TTITLE6=Long Distance Call
TTITLE7=My Baby She Left Me (cause I wouldn't put my guitar down)
TTITLE8=Jerry's Piano Boogie
TTITLE9=End of the Road
TTITLE10=Ramblin'
TTITLE11=Black Magic Woman
TTITLE12=Red House
EXTD=
EXTT0=
EXTT1=
EXTT2=
EXTT3=
EXTT4=
EXTT5=
EXTT6=
EXTT7=
EXTT8=
EXTT9=
EXTT10=
EXTT11=
EXTT12=
PLAYORDER=
